<?xml version="1.0" encoding="utf-8"?>
<!-- Generator: Adobe Illustrator 16.0.0, SVG Export Plug-In . SVG Version: 6.00 Build 0)  -->
<!DOCTYPE svg PUBLIC "-//W3C//DTD SVG 1.1//EN" "http://www.w3.org/Graphics/SVG/1.1/DTD/svg11.dtd">
<svg version="1.1" id="Layer_1" xmlns="http://www.w3.org/2000/svg" xmlns:xlink="http://www.w3.org/1999/xlink" x="0px" y="0px"
	 width="52px" height="52px" viewBox="0 0 52 52" enable-background="new 0 0 52 52" xml:space="preserve">
<g>
	<path d="M39.687,4.583c3.747,0,7.73,7.506,7.73,21.417c0,13.911-3.983,21.417-7.73,21.417H26H12.314
		c-3.748,0-7.731-7.506-7.731-21.417c0-13.911,3.983-21.417,7.731-21.417H26H39.687 M39.687,0.583H26H12.314
		C5.835,0.583,0.583,9.218,0.583,26c0,16.781,5.252,25.417,11.731,25.417H26h13.687c6.479,0,11.73-8.636,11.73-25.417
		C51.417,9.218,46.164,0.583,39.687,0.583L39.687,0.583z"/>
</g>
</svg>
